<svg width="245" height="56" viewBox="0 0 245 56" fill="none" xmlns="http://www.w3.org/2000/svg">
<path fill-rule="evenodd" clip-rule="evenodd" d="M75.1346 26.567H79.6146C81.1306 26.567 82.4206 26.375 83.4866 25.991C84.5516 25.607 85.4246 25.074 86.1046 24.393C86.7856 23.712 87.2806 22.916 87.5876 22.005C87.8956 21.093 88.0496 20.11 88.0496 19.056C88.0496 16.947 87.3626 15.3 85.9896 14.114C84.6166 12.928 82.4926 12.335 79.6146 12.335H75.1346V26.567ZM75.1346 34.243V52H67.7106C65.6616 52 63.9996 50.338 63.9996 48.289V10.174C63.9996 6.764 66.7646 4 70.1746 4H79.6146C83.0856 4 86.0446 4.358 88.4936 5.071C90.9426 5.785 92.9416 6.778 94.4896 8.053C96.0376 9.327 97.1636 10.831 97.8656 12.566C98.5686 14.301 98.9206 16.19 98.9206 18.232C98.9206 19.792 98.7116 21.263 98.2946 22.647C97.8766 24.031 97.2576 25.31 96.4336 26.485C95.6106 27.66 94.5996 28.708 93.4026 29.63C92.2046 30.553 90.8266 31.311 89.2676 31.904C90.0136 32.278 90.7116 32.739 91.3606 33.288C92.0076 33.837 92.5726 34.507 93.0566 35.297L103.269 52H93.1886C91.3216 52 89.9816 51.297 89.1696 49.891L81.1966 35.957C80.8456 35.341 80.4336 34.902 79.9616 34.639C79.4886 34.375 78.8246 34.243 77.9676 34.243H75.1346Z" fill="#2D2D2D"/>
<path fill-rule="evenodd" clip-rule="evenodd" d="M133.174 14.0572C132.851 14.5742 132.513 14.9602 132.159 15.2182C131.804 15.4752 131.347 15.6052 130.788 15.6052C130.294 15.6052 129.761 15.4492 129.193 15.1372C128.623 14.8262 127.978 14.4762 127.258 14.0892C126.538 13.7032 125.716 13.3542 124.792 13.0422C123.868 12.7302 122.816 12.5742 121.633 12.5742C119.592 12.5742 118.071 13.0102 117.072 13.8802C116.072 14.7512 115.573 15.9272 115.573 17.4102C115.573 18.3562 115.874 19.1402 116.476 19.7642C117.077 20.3862 117.866 20.9242 118.845 21.3752C119.822 21.8272 120.94 22.2402 122.197 22.6162C123.455 22.9922 124.739 23.4112 126.049 23.8732C127.36 24.3352 128.645 24.8782 129.902 25.5022C131.159 26.1242 132.276 26.9202 133.255 27.8872C134.232 28.8542 135.022 30.0302 135.624 31.4162C136.225 32.8022 136.527 34.4742 136.527 36.4292C136.527 38.6012 136.151 40.6312 135.398 42.5222C134.645 44.4132 133.556 46.0632 132.126 47.4702C130.697 48.8782 128.935 49.9852 126.839 50.7902C124.744 51.5972 122.364 51.9992 119.699 51.9992C118.237 51.9992 116.75 51.8492 115.235 51.5482C113.719 51.2472 112.252 50.8232 110.834 50.2752C109.416 49.7262 108.083 49.0782 106.837 48.3252C105.59 47.5722 104.505 46.7342 103.581 45.8102L106.805 40.7172C107.041 40.3292 107.374 40.0192 107.804 39.7832C108.234 39.5462 108.695 39.4282 109.191 39.4282C109.835 39.4282 110.485 39.6322 111.14 40.0402C111.796 40.4492 112.537 40.8992 113.364 41.3942C114.192 41.8882 115.143 42.3392 116.218 42.7472C117.292 43.1562 118.56 43.3612 120.022 43.3612C121.999 43.3612 123.535 42.9242 124.632 42.0552C125.727 41.1842 126.276 39.8042 126.276 37.9112C126.276 36.8172 125.974 35.9242 125.373 35.2372C124.771 34.5492 123.981 33.9792 123.003 33.5282C122.025 33.0772 120.913 32.6792 119.667 32.3352C118.421 31.9922 117.141 31.6102 115.831 31.1912C114.52 30.7722 113.24 30.2552 111.995 29.6442C110.748 29.0312 109.636 28.2252 108.659 27.2262C107.68 26.2262 106.89 24.9802 106.288 23.4872C105.687 21.9932 105.386 20.1502 105.386 17.9582C105.386 16.1962 105.741 14.4762 106.45 12.8002C107.159 11.1242 108.201 9.63024 109.577 8.31924C110.952 7.00824 112.64 5.96124 114.638 5.17724C116.636 4.39224 118.925 4.00024 121.505 4.00024C122.944 4.00024 124.346 4.11224 125.712 4.33824C127.075 4.56324 128.37 4.89724 129.596 5.33724C130.821 5.77824 131.965 6.30424 133.028 6.91724C134.092 7.53024 135.044 8.22224 135.882 8.99624L133.174 14.0572Z" fill="#2D2D2D"/>
<path fill-rule="evenodd" clip-rule="evenodd" d="M168.118 14.0572C167.795 14.5742 167.457 14.9602 167.103 15.2182C166.748 15.4752 166.291 15.6052 165.732 15.6052C165.238 15.6052 164.705 15.4492 164.137 15.1372C163.567 14.8262 162.922 14.4762 162.202 14.0892C161.482 13.7032 160.66 13.3542 159.736 13.0422C158.812 12.7302 157.759 12.5742 156.577 12.5742C154.535 12.5742 153.015 13.0102 152.016 13.8802C151.016 14.7512 150.517 15.9272 150.517 17.4102C150.517 18.3562 150.818 19.1402 151.419 19.7642C152.021 20.3862 152.81 20.9242 153.789 21.3752C154.766 21.8272 155.884 22.2402 157.141 22.6162C158.399 22.9922 159.683 23.4112 160.993 23.8732C162.304 24.3352 163.589 24.8782 164.846 25.5022C166.103 26.1242 167.22 26.9202 168.198 27.8872C169.176 28.8542 169.966 30.0302 170.568 31.4162C171.169 32.8022 171.471 34.4742 171.471 36.4292C171.471 38.6012 171.095 40.6312 170.342 42.5222C169.589 44.4132 168.499 46.0632 167.07 47.4702C165.641 48.8782 163.879 49.9852 161.783 50.7902C159.688 51.5972 157.308 51.9992 154.643 51.9992C153.181 51.9992 151.694 51.8492 150.179 51.5482C148.663 51.2472 147.196 50.8232 145.778 50.2752C144.36 49.7262 143.027 49.0782 141.781 48.3252C140.534 47.5722 139.449 46.7342 138.525 45.8102L141.748 40.7172C141.985 40.3292 142.318 40.0192 142.748 39.7832C143.177 39.5462 143.639 39.4282 144.134 39.4282C144.779 39.4282 145.429 39.6322 146.084 40.0402C146.74 40.4492 147.481 40.8992 148.308 41.3942C149.136 41.8882 150.087 42.3392 151.162 42.7472C152.236 43.1562 153.504 43.3612 154.966 43.3612C156.943 43.3612 158.479 42.9242 159.576 42.0552C160.671 41.1842 161.219 39.8042 161.219 37.9112C161.219 36.8172 160.918 35.9242 160.316 35.2372C159.715 34.5492 158.925 33.9792 157.947 33.5282C156.969 33.0772 155.857 32.6792 154.611 32.3352C153.365 31.9922 152.085 31.6102 150.774 31.1912C149.464 30.7722 148.184 30.2552 146.938 29.6442C145.692 29.0312 144.58 28.2252 143.602 27.2262C142.624 26.2262 141.834 24.9802 141.232 23.4872C140.631 21.9932 140.33 20.1502 140.33 17.9582C140.33 16.1962 140.685 14.4762 141.394 12.8002C142.103 11.1242 143.145 9.63024 144.521 8.31924C145.896 7.00824 147.584 5.96124 149.582 5.17724C151.58 4.39224 153.869 4.00024 156.449 4.00024C157.888 4.00024 159.29 4.11224 160.656 4.33824C162.019 4.56324 163.314 4.89724 164.54 5.33724C165.765 5.77824 166.909 6.30424 167.972 6.91724C169.036 7.53024 169.987 8.22224 170.825 8.99624L168.118 14.0572Z" fill="#2D2D2D"/>
<path d="M36 52H26C26.0096 46.163 23.6919 40.5629 19.56 36.44C15.4327 32.3147 9.8355 29.9981 4 30V20C12.489 19.991 20.6321 23.3626 26.63 29.37C32.6402 35.366 36.0124 43.5104 36 52Z" fill="url(#paint0_linear)"/>
<path d="M17.9998 45.05C17.9758 48.3846 15.6029 51.2392 12.3289 51.8721C9.05484 52.505 5.78893 50.7404 4.52393 47.655C3.25893 44.5697 4.34611 41.0203 7.1221 39.1727C9.89809 37.3251 13.592 37.6924 15.9499 40.0503C17.2749 41.3753 18.0133 43.1763 17.9998 45.05Z" fill="url(#paint1_linear)"/>
<path d="M52 52H42.0314C42.0446 41.9192 38.0517 32.249 30.9368 25.1301C23.8381 17.9963 14.2003 13.9914 4.15238 14.0002H4V4.00004H4.15238C16.8453 3.98424 29.021 9.04427 37.9843 18.0601C46.9753 27.0495 52.0199 39.2658 52 52Z" fill="url(#paint2_linear)"/>
<path d="M171 52.056V47.448H174.52V52.056H171Z" fill="#2D2D2D"/>
<path d="M176.727 43.672C176.727 42.4987 176.93 41.3893 177.335 40.344C177.741 39.2987 178.327 38.3813 179.095 37.592C179.864 36.8027 180.792 36.1733 181.88 35.704C182.968 35.2347 184.194 35 185.56 35C187.394 35 188.951 35.3947 190.232 36.184C191.533 36.9733 192.503 38.008 193.143 39.288L188.951 40.568C188.589 39.9493 188.109 39.48 187.511 39.16C186.914 38.8187 186.253 38.648 185.527 38.648C184.909 38.648 184.333 38.776 183.8 39.032C183.266 39.2667 182.797 39.608 182.392 40.056C182.008 40.4827 181.698 41.0053 181.464 41.624C181.25 42.2427 181.144 42.9253 181.144 43.672C181.144 44.4187 181.261 45.1013 181.495 45.72C181.73 46.3387 182.04 46.872 182.424 47.32C182.829 47.768 183.298 48.12 183.832 48.376C184.365 48.6107 184.93 48.728 185.527 48.728C186.295 48.728 186.999 48.536 187.639 48.152C188.301 47.768 188.76 47.2987 189.016 46.744L193.208 48.024C192.632 49.304 191.682 50.3493 190.359 51.16C189.037 51.9707 187.448 52.376 185.592 52.376C184.226 52.376 183 52.1413 181.911 51.672C180.823 51.2027 179.896 50.5733 179.128 49.784C178.36 48.9733 177.762 48.0453 177.335 47C176.93 45.9333 176.727 44.824 176.727 43.672Z" fill="#2D2D2D"/>
<path d="M202.934 52.376C201.568 52.376 200.342 52.1413 199.254 51.672C198.166 51.2027 197.238 50.5733 196.47 49.784C195.723 48.9733 195.147 48.0453 194.742 47C194.336 45.9547 194.134 44.856 194.134 43.704C194.134 42.5307 194.336 41.4213 194.742 40.376C195.147 39.3307 195.723 38.4133 196.47 37.624C197.238 36.8133 198.166 36.1733 199.254 35.704C200.342 35.2347 201.568 35 202.934 35C204.299 35 205.515 35.2347 206.582 35.704C207.67 36.1733 208.587 36.8133 209.334 37.624C210.102 38.4133 210.688 39.3307 211.094 40.376C211.499 41.4213 211.702 42.5307 211.702 43.704C211.702 44.856 211.499 45.9547 211.094 47C210.688 48.0453 210.112 48.9733 209.366 49.784C208.619 50.5733 207.702 51.2027 206.614 51.672C205.526 52.1413 204.299 52.376 202.934 52.376ZM198.55 43.704C198.55 44.4507 198.656 45.1333 198.87 45.752C199.104 46.3493 199.414 46.872 199.798 47.32C200.203 47.768 200.672 48.12 201.206 48.376C201.739 48.6107 202.315 48.728 202.934 48.728C203.552 48.728 204.128 48.6107 204.662 48.376C205.195 48.12 205.654 47.768 206.038 47.32C206.443 46.872 206.752 46.3387 206.966 45.72C207.2 45.1013 207.318 44.4187 207.318 43.672C207.318 42.9467 207.2 42.2747 206.966 41.656C206.752 41.0373 206.443 40.504 206.038 40.056C205.654 39.608 205.195 39.2667 204.662 39.032C204.128 38.776 203.552 38.648 202.934 38.648C202.315 38.648 201.739 38.776 201.206 39.032C200.672 39.288 200.203 39.64 199.798 40.088C199.414 40.536 199.104 41.0693 198.87 41.688C198.656 42.3067 198.55 42.9787 198.55 43.704Z" fill="#2D2D2D"/>
<path d="M240.144 52.056H235.856V42.648C235.856 41.304 235.621 40.3227 235.152 39.704C234.704 39.0853 234.075 38.776 233.264 38.776C232.411 38.776 231.611 39.1067 230.864 39.768C230.117 40.408 229.584 41.2507 229.264 42.296V52.056H224.976V42.648C224.976 41.304 224.741 40.3227 224.272 39.704C223.824 39.0853 223.195 38.776 222.384 38.776C221.552 38.776 220.752 39.096 219.984 39.736C219.237 40.376 218.704 41.2187 218.384 42.264V52.056H214.096V35.288H217.968V38.392C218.587 37.304 219.429 36.472 220.496 35.896C221.584 35.2987 222.821 35 224.208 35C225.616 35 226.704 35.3413 227.472 36.024C228.24 36.7067 228.731 37.5493 228.944 38.552C229.627 37.4 230.491 36.5253 231.536 35.928C232.581 35.3093 233.776 35 235.12 35C236.144 35 236.987 35.192 237.648 35.576C238.309 35.96 238.821 36.4613 239.184 37.08C239.547 37.6987 239.792 38.4027 239.92 39.192C240.069 39.9813 240.144 40.7813 240.144 41.592V52.056Z" fill="#2D2D2D"/>
<defs>
<linearGradient id="paint0_linear" x1="6.25" y1="36" x2="38.25" y2="36" gradientUnits="userSpaceOnUse">
<stop stop-color="#F8B700"/>
<stop offset="0.51" stop-color="#F87900"/>
<stop offset="1" stop-color="#AE35DD"/>
</linearGradient>
<linearGradient id="paint1_linear" x1="4.00054" y1="45.05" x2="22.2151" y2="45.05" gradientUnits="userSpaceOnUse">
<stop stop-color="#FE4F45"/>
<stop offset="0.52" stop-color="#F87900"/>
<stop offset="1" stop-color="#F8B700"/>
</linearGradient>
<linearGradient id="paint2_linear" x1="4" y1="28" x2="52" y2="28" gradientUnits="userSpaceOnUse">
<stop stop-color="#FE4F45"/>
<stop offset="0.52" stop-color="#F87900"/>
<stop offset="1" stop-color="#F8B700"/>
</linearGradient>
</defs>
</svg>
